<svg xmlns="http://www.w3.org/2000/svg" xmlns:xlink="http://www.w3.org/1999/xlink" width="227.692" height="69" viewBox="0 0 227.692 69">
  <defs>
    <linearGradient id="linear-gradient" x1="-0.507" y1="0.842" x2="0.91" y2="-0.042" gradientUnits="objectBoundingBox">
      <stop offset="0" stop-color="#ffe227"/>
      <stop offset="0.98" stop-color="#f05454"/>
    </linearGradient>
    <linearGradient id="linear-gradient-2" y1="0.5" x2="1" y2="0.5" gradientUnits="objectBoundingBox">
      <stop offset="0.87" stop-color="#fff"/>
      <stop offset="1" stop-color="#e6e6e6"/>
    </linearGradient>
    <linearGradient id="linear-gradient-3" x1="0" y1="0.5" x2="1" y2="0.5" xlink:href="#linear-gradient"/>
    <linearGradient id="linear-gradient-4" y1="0.5" x2="1" y2="0.5" gradientUnits="objectBoundingBox">
      <stop offset="0" stop-color="#fff"/>
      <stop offset="0.98" stop-color="#e6e6e6"/>
    </linearGradient>
    <linearGradient id="linear-gradient-5" x1="-0.258" y1="0.5" x2="1.131" y2="0.5" xlink:href="#linear-gradient"/>
    <linearGradient id="linear-gradient-6" x1="0.227" y1="-0.093" x2="1.664" y2="1.589" xlink:href="#linear-gradient"/>
    <linearGradient id="linear-gradient-7" x1="0" y1="0.5" x2="1" y2="0.5" xlink:href="#linear-gradient"/>
    <linearGradient id="linear-gradient-8" x1="-168.934" y1="775.359" x2="-167.885" y2="775.359" xlink:href="#linear-gradient"/>
    <linearGradient id="linear-gradient-11" x1="-0.212" y1="0.5" x2="1.181" y2="0.5" xlink:href="#linear-gradient-4"/>
    <linearGradient id="linear-gradient-12" x1="-0.212" y1="0.5" x2="1.502" y2="0.5" xlink:href="#linear-gradient-4"/>
    <linearGradient id="linear-gradient-13" x1="-0.012" y1="0.5" x2="1.133" y2="0.5" xlink:href="#linear-gradient-4"/>
    <linearGradient id="linear-gradient-14" x1="0.094" y1="1" x2="0.854" y2="-0.09" gradientUnits="objectBoundingBox">
      <stop offset="0" stop-color="#b3b3b3"/>
      <stop offset="1" stop-color="#f2f2f2"/>
    </linearGradient>
    <linearGradient id="linear-gradient-15" x1="0.094" y1="1" x2="0.854" y2="-0.09" gradientUnits="objectBoundingBox">
      <stop offset="0" stop-color="#b3b3b3"/>
      <stop offset="0.417" stop-color="#cfcfcf" stop-opacity="0.553"/>
      <stop offset="0.816" stop-color="#e8e8e8" stop-opacity="0.153"/>
      <stop offset="1" stop-color="#f2f2f2" stop-opacity="0"/>
    </linearGradient>
    <linearGradient id="linear-gradient-16" x1="-0.258" y1="0.5" x2="1.131" y2="0.5" xlink:href="#linear-gradient-4"/>
  </defs>
  <g id="Grupo_64" data-name="Grupo 64" transform="translate(-431.685 2030.256)">
    <g id="Grupo_60" data-name="Grupo 60" transform="translate(431.685 -2030.256)">
      <path id="Caminho_91" data-name="Caminho 91" d="M570.682-1952.828l.741-.706-.807-.046Z" transform="translate(-509.146 1987.505)" fill="url(#linear-gradient)"/>
      <g id="Grupo_59" data-name="Grupo 59" transform="translate(0 0)">
        <path id="Caminho_92" data-name="Caminho 92" d="M493.216-2001.863c0,.319,0,.641,0,.969.015,2.916.179,6.175.546,9.8,1.27,12.515-5.084,19.221-14.468,25.31a28.129,28.129,0,0,1-15.318,4.524,28.131,28.131,0,0,1-15.318-4.524c-1.3-.841-2.537-1.7-3.706-2.576-7.288-5.478-11.853-11.948-10.762-22.734.015-.14.027-.283.042-.42q.291-2.992.408-5.645c.579-12.682-1.524-19.8-2.812-22.895a1.844,1.844,0,0,1,1.2-2.49c2.252-.62,6.432-1.75,13.281-3.519,10.282-2.648,15.849-3.855,17.283-4.159a1.911,1.911,0,0,1,.757,0c1.434.3,7,1.512,17.283,4.159,4.809,1.244,8.3,2.168,10.737,2.824,1.032.28,1.873.51,2.544.695a1.843,1.843,0,0,1,1.2,2.49C495-2017.36,493.269-2011.635,493.216-2001.863Z" transform="translate(-431.685 2030.256)" fill="url(#linear-gradient-2)"/>
        <path id="Caminho_93" data-name="Caminho 93" d="M436.271-1930.872l-.685-1.461.849-.369Z" transform="translate(-433.86 1975.865)" fill="url(#linear-gradient-3)"/>
        <path id="Caminho_94" data-name="Caminho 94" d="M492.247-2022.733c-1.2,2.892-3.119,9.3-2.893,20.476.009.391.018.79.03,1.193.077,2.245.235,4.67.5,7.291,1.27,12.515-5.084,19.221-14.468,25.31a28.126,28.126,0,0,1-15.318,4.524,28.119,28.119,0,0,1-15.148-4.416c-7.288-5.478-11.853-11.948-10.762-22.734.015-.14.027-.283.042-.42q.291-2.992.408-5.645c.579-12.682-1.524-19.8-2.812-22.895a1.844,1.844,0,0,1,1.2-2.49c2.252-.62,6.432-1.75,13.281-3.519,10.282-2.648,15.849-3.855,17.283-4.159a1.911,1.911,0,0,1,.757,0c1.434.3,7,1.512,17.283,4.159,4.809,1.244,8.3,2.168,10.737,2.824A1.713,1.713,0,0,1,492.247-2022.733Z" transform="translate(-431.685 2030.256)" fill="url(#linear-gradient-4)"/>
        <g id="Grupo_57" data-name="Grupo 57" transform="translate(16.546 18.081)">
          <path id="Caminho_95" data-name="Caminho 95" d="M498.184-1984.576l-.013-.018c-.053-.077-.108-.152-.163-.227a11.571,11.571,0,0,0-9.671-4.569,14.36,14.36,0,0,0-5.676,1.125,12.5,12.5,0,0,0-3.548,2.284c-.285.26-.558.536-.816.823a5.641,5.641,0,0,0-5.127-3.288h-4.09v31.894a10.985,10.985,0,0,0,10.985-10.985v-6.047c0-4.059,1.972-6.451,5.4-6.451a3.569,3.569,0,0,1,3.51,2.034,8.046,8.046,0,0,1,.65,3.519v6.944a10.954,10.954,0,0,0,3.217,7.768,10.942,10.942,0,0,0,7.259,3.2.657.657,0,0,0,.472-.631v-18.84A14.882,14.882,0,0,0,498.184-1984.576Z" transform="translate(-469.081 1989.39)" fill="url(#linear-gradient-5)"/>
          <g id="Grupo_56" data-name="Grupo 56" transform="translate(10.032)">
            <path id="Caminho_96" data-name="Caminho 96" d="M513.213-1976.036v18.84a.657.657,0,0,1-.472.631,10.942,10.942,0,0,1-7.259-3.2,10.954,10.954,0,0,1-3.217-7.768v-6.944a8.046,8.046,0,0,0-.65-3.519c-1.4-6.454-5.569-7.552-9.86-7.98a12.5,12.5,0,0,1,3.548-2.284,14.36,14.36,0,0,1,5.676-1.125,11.571,11.571,0,0,1,9.671,4.569c.055.075.11.15.163.227l.013.018A14.882,14.882,0,0,1,513.213-1976.036Z" transform="translate(-491.755 1989.39)" fill="url(#linear-gradient-6)"/>
          </g>
        </g>
        <path id="Caminho_97" data-name="Caminho 97" d="M509.594-1963.182l-.026-.071h0Z" transform="translate(-475.109 1992.898)" fill="url(#linear-gradient-7)"/>
        <g id="Grupo_58" data-name="Grupo 58" transform="translate(39.592 8.147)">
          <path id="Caminho_98" data-name="Caminho 98" d="M530.158-1999.9a5.98,5.98,0,0,0-5.684-5.973,5.98,5.98,0,0,0,5.7-5.973,5.98,5.98,0,0,0,5.684,5.973A5.98,5.98,0,0,0,530.158-1999.9Z" transform="translate(-523.011 2011.843)" fill="url(#linear-gradient-8)"/>
          <path id="Caminho_99" data-name="Caminho 99" d="M543.7-1989.607a1.81,1.81,0,0,0-1.721-1.808,1.811,1.811,0,0,0,1.725-1.808,1.81,1.81,0,0,0,1.72,1.807A1.81,1.81,0,0,0,543.7-1989.607Z" transform="translate(-532.773 2001.461)" fill="#ffa41b"/>
          <path id="Caminho_100" data-name="Caminho 100" d="M524.947-1983.038a3.976,3.976,0,0,0-3.779-3.971,3.975,3.975,0,0,0,3.788-3.97,3.975,3.975,0,0,0,3.779,3.97A3.976,3.976,0,0,0,524.947-1983.038Z" transform="translate(-521.168 2000.21)" fill="#f2f2f2"/>
        </g>
      </g>
      <path id="Caminho_101" data-name="Caminho 101" d="M495.778-1956.834a140.82,140.82,0,0,0-15.9,1.58,105.348,105.348,0,0,0-11.771,2.543v.353a104.676,104.676,0,0,1,11.825-2.564,142.071,142.071,0,0,1,15.86-1.573c1.712-.078,3.459-.129,5.222-.156v-.339q-2.7.04-5.236.156Zm3.493-2.323c-2.123-.075-4.239-.112-6.3-.112a145.777,145.777,0,0,0-16.949.939q-4.1.483-7.915,1.218v.345c2.632-.508,5.29-.912,7.953-1.227a145.582,145.582,0,0,1,16.912-.936c2.136,0,4.236.041,6.281.112h0q.885.03,1.76.071v-.339C500.434-1959.113,499.85-1959.137,499.271-1959.157Z" transform="translate(-451.993 1990.677)" fill="url(#linear-gradient-4)"/>
      <path id="Caminho_102" data-name="Caminho 102" d="M496.21-1957.274c0,.328,0,.659,0,1q-2-.11-3.94-.175c-5.267-.19-10.135-.156-14.633.046h0a140.94,140.94,0,0,0-15.9,1.579c-13.1,2.094-21.484,5.635-26.169,8.2q.3-3.076.42-5.8a91.267,91.267,0,0,1,21.932-5.132,153.773,153.773,0,0,1,23.192-.825h0c3.952.138,7.7.4,11.125.711C493.616-1957.553,494.943-1957.415,496.21-1957.274Z" transform="translate(-433.849 1990.25)" fill="url(#linear-gradient-3)"/>
      <path id="Caminho_103" data-name="Caminho 103" d="M542.275-1908.144a17.989,17.989,0,0,0,9.485-11.111" transform="translate(-493.344 1968.367)" fill="none" stroke="#707070" stroke-miterlimit="10" stroke-width="1.837" opacity="0.2" style="mix-blend-mode: multiply;isolation: isolate"/>
      <path id="Caminho_104" data-name="Caminho 104" d="M434.88-2008.049c-1.241-2.186-1.539-4.01,1.355-4.607" transform="translate(-432.965 2020.443)" fill="none" stroke="#707070" stroke-miterlimit="10" stroke-width="1.837" opacity="0.2" style="mix-blend-mode: multiply;isolation: isolate"/>
    </g>
    <g id="Grupo_63" data-name="Grupo 63" transform="translate(508.583 -2017.797)">
      <g id="Grupo_61" data-name="Grupo 61" transform="translate(0 0)">
        <path id="Caminho_105" data-name="Caminho 105" d="M690.428-1983.135c0-10.955,8.292-18.829,19.816-18.829,11.486,0,19.816,7.873,19.816,18.829,0,10.918-8.33,18.83-19.816,18.83C698.72-1964.3,690.428-1972.217,690.428-1983.135Zm19.816,7.895c4.439,0,7.622-3.221,7.622-7.893,0-4.645-3.183-7.894-7.622-7.894s-7.623,3.221-7.623,7.893,3.184,7.893,7.623,7.893Z" transform="translate(-652.845 2002.023)" fill="url(#linear-gradient-11)"/>
        <path id="Caminho_106" data-name="Caminho 106" d="M856.729-1983.135c0-10.955,8.292-18.829,19.816-18.829,11.486,0,19.816,7.873,19.816,18.829,0,10.918-8.33,18.83-19.816,18.83C865.021-1964.3,856.729-1972.217,856.729-1983.135Zm19.816,7.895c4.439,0,7.622-3.221,7.622-7.893,0-4.645-3.183-7.894-7.622-7.894s-7.622,3.221-7.622,7.893,3.183,7.893,7.622,7.893Z" transform="translate(-745.567 2002.023)" fill="url(#linear-gradient-12)"/>
        <path id="Caminho_107" data-name="Caminho 107" d="M796.284-1989.689l-1.81,5.736-.88,2.789a.015.015,0,0,1,0-.008l-2.414-7.562-.322-1.009a17.748,17.748,0,0,0-16.908-12.354h-.373l11.926,29.273.4.977c.039.1.081.19.123.286.024.053.051.107.077.162a8.151,8.151,0,0,0,2.811,3.255,8.166,8.166,0,0,0,4.562,1.39,8.183,8.183,0,0,0,7.434-4.765c.055-.119.107-.239.156-.363l1.38-3.433L813.21-2002.1A17.75,17.75,0,0,0,796.284-1989.689Z" transform="translate(-699.205 2002.097)" fill="url(#linear-gradient-13)"/>
        <path id="Caminho_108" data-name="Caminho 108" d="M838.437-2002.1l-10.767,26.782c-4.426,1.121-7.846-.239-8.849-5.849l.88-2.789,1.81-5.736A17.75,17.75,0,0,1,838.437-2002.1Z" transform="translate(-724.431 2002.097)" fill="url(#linear-gradient-14)"/>
        <path id="Caminho_109" data-name="Caminho 109" d="M838.437-2002.1l-10.767,26.782c-4.426,1.121-7.846-.239-8.849-5.849l.88-2.789,1.81-5.736A17.75,17.75,0,0,1,838.437-2002.1Z" transform="translate(-724.431 2002.097)" fill="url(#linear-gradient-15)"/>
        <path id="Caminho_110" data-name="Caminho 110" d="M640.422-1984.255v21.551h0a12.174,12.174,0,0,1-12.174-12.174v-7.695c0-4.114-1.545-6.154-4.609-6.154-3.8,0-5.98,2.652-5.98,7.15v6.7a12.174,12.174,0,0,1-12.174,12.174h0v-35.343h4.531a6.251,6.251,0,0,1,5.682,3.644h0a14.691,14.691,0,0,1,11.126-4.689C635.032-1999.092,640.422-1993.259,640.422-1984.255Z" transform="translate(-605.486 2000.422)" fill="url(#linear-gradient-16)"/>
      </g>
      <g id="Grupo_62" data-name="Grupo 62" transform="translate(34.756 44.329)">
        <path id="Caminho_111" data-name="Caminho 111" d="M689.327-1899.643a2.519,2.519,0,0,0-1.849-.667c-.879,0-1.364.273-1.364.743s.439.757,1.394.818c1.409.091,3.2.409,3.2,2.394,0,1.318-1.076,2.455-3.212,2.455a4.37,4.37,0,0,1-3.455-1.333l.909-1.318a4.1,4.1,0,0,0,2.576,1.046c.7.015,1.349-.349,1.349-.894,0-.515-.424-.727-1.485-.788-1.409-.106-3.091-.621-3.091-2.318,0-1.728,1.788-2.334,3.152-2.334a4.011,4.011,0,0,1,2.909.985Z" transform="translate(-684.039 1901.87)" fill="url(#linear-gradient-4)"/>
        <path id="Caminho_112" data-name="Caminho 112" d="M713.21-1897.252a1.988,1.988,0,0,0,2.228,1.591,3.083,3.083,0,0,0,2-.7l1.182,1.167a4.588,4.588,0,0,1-3.212,1.212,3.765,3.765,0,0,1-4.106-3.985,3.738,3.738,0,0,1,3.97-3.909c2.5,0,4.061,1.545,3.773,4.622Zm4.061-1.531a1.711,1.711,0,0,0-1.94-1.454,2.012,2.012,0,0,0-2.091,1.454Z" transform="translate(-699.239 1901.889)" fill="url(#linear-gradient-4)"/>
        <path id="Caminho_113" data-name="Caminho 113" d="M747.156-1895.271a2.456,2.456,0,0,1-1.894.909,3.5,3.5,0,0,1-3.788-3.758,3.643,3.643,0,0,1,3.788-3.788,3.746,3.746,0,0,1,1.894.575v-.575H749v6.576a3.655,3.655,0,0,1-3.743,4.015,3.5,3.5,0,0,1-3.758-2.773l1.8-.348a1.812,1.812,0,0,0,1.94,1.394,1.983,1.983,0,0,0,1.894-2.227Zm-3.849-2.849a1.927,1.927,0,0,0,1.955,2.076,1.933,1.933,0,0,0,1.939-2.076,1.959,1.959,0,0,0-1.939-2.107A1.953,1.953,0,0,0,743.307-1898.12Z" transform="translate(-716.062 1901.908)" fill="url(#linear-gradient-4)"/>
        <path id="Caminho_114" data-name="Caminho 114" d="M773.427-1901.36v3.91a1.782,1.782,0,0,0,1.8,2,1.965,1.965,0,0,0,1.909-2.091v-3.818h1.833v7.485h-1.652l-.121-1.015a3.328,3.328,0,0,1-2.53,1.122c-1.788,0-3.091-1.349-3.091-3.667v-3.925Z" transform="translate(-732.846 1901.603)" fill="url(#linear-gradient-4)"/>
        <path id="Caminho_115" data-name="Caminho 115" d="M806.22-1899.972a1.909,1.909,0,0,0-2.106,1.894v3.94h-1.849v-7.47h1.849v.864a2.2,2.2,0,0,1,2.106-1.061Z" transform="translate(-749.956 1901.851)" fill="url(#linear-gradient-4)"/>
        <path id="Caminho_116" data-name="Caminho 116" d="M830.656-1897.809a3.73,3.73,0,0,1-3.894,3.894,3.717,3.717,0,0,1-3.879-3.894,3.739,3.739,0,0,1,3.864-3.894A3.777,3.777,0,0,1,830.656-1897.809Zm-5.925,0a2.023,2.023,0,0,0,2.03,2.2,2.023,2.023,0,0,0,2.03-2.2,2.11,2.11,0,0,0-2.03-2.212A2.053,2.053,0,0,0,824.732-1897.809Z" transform="translate(-761.452 1901.794)" fill="url(#linear-gradient-4)"/>
        <path id="Caminho_117" data-name="Caminho 117" d="M857.967-1899.643a2.519,2.519,0,0,0-1.849-.667c-.879,0-1.364.273-1.364.743s.439.757,1.394.818c1.409.091,3.2.409,3.2,2.394,0,1.318-1.076,2.455-3.213,2.455a4.37,4.37,0,0,1-3.455-1.333l.909-1.318a4.1,4.1,0,0,0,2.576,1.046c.7.015,1.348-.349,1.348-.894,0-.515-.424-.727-1.485-.788-1.409-.106-3.091-.621-3.091-2.318,0-1.728,1.788-2.334,3.152-2.334a4.012,4.012,0,0,1,2.91.985Z" transform="translate(-778.064 1901.87)" fill="url(#linear-gradient-4)"/>
      </g>
    </g>
  </g>
</svg>
